<mxfile host="app.diagrams.net" modified="2022-02-14T14:31:06.040Z" agent="5.0 (X11)" etag="ijZ9ZTD4UXWrPHFE4dTB" version="16.5.6" type="github">
  <diagram id="fQiar5RYDMq4_yy8F3EV" name="Page-1">
    <mxGraphModel dx="982" dy="562" grid="1" gridSize="10" guides="1" tooltips="1" connect="1" arrows="1" fold="1" page="1" pageScale="1" pageWidth="850" pageHeight="1100" math="0" shadow="0">
      <root>
        <mxCell id="0" />
        <mxCell id="1" parent="0" />
        <mxCell id="7ZFGauINO0oHqFnyAmV4-1" value="s_rst" style="ellipse;shape=doubleEllipse;whiteSpace=wrap;html=1;aspect=fixed;" vertex="1" parent="1">
          <mxGeometry x="240" y="320" width="80" height="80" as="geometry" />
        </mxCell>
        <mxCell id="7ZFGauINO0oHqFnyAmV4-2" value="s_wr_0" style="ellipse;whiteSpace=wrap;html=1;aspect=fixed;" vertex="1" parent="1">
          <mxGeometry x="400" y="480" width="80" height="80" as="geometry" />
        </mxCell>
        <mxCell id="7ZFGauINO0oHqFnyAmV4-3" value="" style="curved=1;endArrow=classic;html=1;rounded=0;" edge="1" parent="1" source="7ZFGauINO0oHqFnyAmV4-1" target="7ZFGauINO0oHqFnyAmV4-2">
          <mxGeometry width="50" height="50" relative="1" as="geometry">
            <mxPoint x="350" y="460" as="sourcePoint" />
            <mxPoint x="400" y="410" as="targetPoint" />
            <Array as="points">
              <mxPoint x="410" y="400" />
            </Array>
          </mxGeometry>
        </mxCell>
        <mxCell id="7ZFGauINO0oHqFnyAmV4-4" value="cnt &amp;lt;= 0" style="text;html=1;align=center;verticalAlign=middle;resizable=0;points=[];autosize=1;strokeColor=none;fillColor=none;" vertex="1" parent="1">
          <mxGeometry x="380" y="390" width="60" height="20" as="geometry" />
        </mxCell>
        <mxCell id="7ZFGauINO0oHqFnyAmV4-5" value="s_wr_1" style="ellipse;whiteSpace=wrap;html=1;aspect=fixed;" vertex="1" parent="1">
          <mxGeometry x="600" y="480" width="80" height="80" as="geometry" />
        </mxCell>
        <mxCell id="7ZFGauINO0oHqFnyAmV4-6" value="" style="curved=1;endArrow=classic;html=1;rounded=0;" edge="1" parent="1" source="7ZFGauINO0oHqFnyAmV4-2" target="7ZFGauINO0oHqFnyAmV4-5">
          <mxGeometry width="50" height="50" relative="1" as="geometry">
            <mxPoint x="490" y="490" as="sourcePoint" />
            <mxPoint x="540" y="440" as="targetPoint" />
            <Array as="points">
              <mxPoint x="540" y="460" />
            </Array>
          </mxGeometry>
        </mxCell>
        <mxCell id="7ZFGauINO0oHqFnyAmV4-7" value="&lt;div&gt;wr &amp;lt;= &#39;0&#39;&lt;/div&gt;shift &amp;lt;= &#39;0&#39;" style="text;html=1;align=center;verticalAlign=middle;resizable=0;points=[];autosize=1;strokeColor=none;fillColor=none;" vertex="1" parent="1">
          <mxGeometry x="410" y="560" width="70" height="30" as="geometry" />
        </mxCell>
        <mxCell id="7ZFGauINO0oHqFnyAmV4-8" value="&lt;div&gt;wr &amp;lt;= &#39;0&#39;&lt;/div&gt;shift &amp;lt;= &#39;0&#39;" style="text;html=1;align=center;verticalAlign=middle;resizable=0;points=[];autosize=1;strokeColor=none;fillColor=none;" vertex="1" parent="1">
          <mxGeometry x="245" y="285" width="70" height="30" as="geometry" />
        </mxCell>
        <mxCell id="7ZFGauINO0oHqFnyAmV4-9" value="&lt;div&gt;wr &amp;lt;= &#39;1&#39;&lt;/div&gt;shift &amp;lt;= &#39;0&#39;" style="text;html=1;align=center;verticalAlign=middle;resizable=0;points=[];autosize=1;strokeColor=none;fillColor=none;" vertex="1" parent="1">
          <mxGeometry x="685" y="505" width="70" height="30" as="geometry" />
        </mxCell>
        <mxCell id="7ZFGauINO0oHqFnyAmV4-10" value="/" style="text;html=1;align=center;verticalAlign=middle;resizable=0;points=[];autosize=1;strokeColor=none;fillColor=none;" vertex="1" parent="1">
          <mxGeometry x="530" y="450" width="20" height="20" as="geometry" />
        </mxCell>
        <mxCell id="7ZFGauINO0oHqFnyAmV4-11" value="" style="curved=1;endArrow=classic;html=1;rounded=0;" edge="1" parent="1" source="7ZFGauINO0oHqFnyAmV4-5" target="7ZFGauINO0oHqFnyAmV4-2">
          <mxGeometry width="50" height="50" relative="1" as="geometry">
            <mxPoint x="600" y="650" as="sourcePoint" />
            <mxPoint x="650" y="600" as="targetPoint" />
            <Array as="points">
              <mxPoint x="540" y="570" />
            </Array>
          </mxGeometry>
        </mxCell>
        <mxCell id="7ZFGauINO0oHqFnyAmV4-12" value="/ cnt &amp;lt;= cnt + 1" style="text;html=1;align=center;verticalAlign=middle;resizable=0;points=[];autosize=1;strokeColor=none;fillColor=none;" vertex="1" parent="1">
          <mxGeometry x="490" y="560" width="100" height="20" as="geometry" />
        </mxCell>
        <mxCell id="7ZFGauINO0oHqFnyAmV4-13" value="s_wr_done" style="ellipse;whiteSpace=wrap;html=1;aspect=fixed;" vertex="1" parent="1">
          <mxGeometry x="240" y="640" width="80" height="80" as="geometry" />
        </mxCell>
        <mxCell id="7ZFGauINO0oHqFnyAmV4-14" value="" style="curved=1;endArrow=classic;html=1;rounded=0;" edge="1" parent="1" source="7ZFGauINO0oHqFnyAmV4-2" target="7ZFGauINO0oHqFnyAmV4-13">
          <mxGeometry width="50" height="50" relative="1" as="geometry">
            <mxPoint x="250" y="610" as="sourcePoint" />
            <mxPoint x="300" y="560" as="targetPoint" />
            <Array as="points">
              <mxPoint x="380" y="620" />
            </Array>
          </mxGeometry>
        </mxCell>
        <mxCell id="7ZFGauINO0oHqFnyAmV4-15" value="&lt;div&gt;cnt = CNT_MAX /&lt;/div&gt;&lt;div&gt;&lt;br&gt;&lt;/div&gt;" style="text;html=1;align=center;verticalAlign=middle;resizable=0;points=[];autosize=1;strokeColor=none;fillColor=none;" vertex="1" parent="1">
          <mxGeometry x="370" y="610" width="110" height="30" as="geometry" />
        </mxCell>
        <mxCell id="7ZFGauINO0oHqFnyAmV4-16" value="s_shift" style="ellipse;whiteSpace=wrap;html=1;aspect=fixed;" vertex="1" parent="1">
          <mxGeometry x="40" y="600" width="80" height="80" as="geometry" />
        </mxCell>
        <mxCell id="7ZFGauINO0oHqFnyAmV4-18" value="" style="curved=1;endArrow=classic;html=1;rounded=0;" edge="1" parent="1" source="7ZFGauINO0oHqFnyAmV4-13" target="7ZFGauINO0oHqFnyAmV4-16">
          <mxGeometry width="50" height="50" relative="1" as="geometry">
            <mxPoint x="110" y="790" as="sourcePoint" />
            <mxPoint x="160" y="740" as="targetPoint" />
            <Array as="points">
              <mxPoint x="160" y="710" />
            </Array>
          </mxGeometry>
        </mxCell>
        <mxCell id="7ZFGauINO0oHqFnyAmV4-19" value="/" style="text;html=1;align=center;verticalAlign=middle;resizable=0;points=[];autosize=1;strokeColor=none;fillColor=none;" vertex="1" parent="1">
          <mxGeometry x="160" y="700" width="20" height="20" as="geometry" />
        </mxCell>
        <mxCell id="7ZFGauINO0oHqFnyAmV4-20" value="s_wait" style="ellipse;whiteSpace=wrap;html=1;aspect=fixed;" vertex="1" parent="1">
          <mxGeometry x="40" y="440" width="80" height="80" as="geometry" />
        </mxCell>
        <mxCell id="7ZFGauINO0oHqFnyAmV4-21" value="" style="curved=1;endArrow=classic;html=1;rounded=0;" edge="1" parent="1" source="7ZFGauINO0oHqFnyAmV4-16" target="7ZFGauINO0oHqFnyAmV4-20">
          <mxGeometry width="50" height="50" relative="1" as="geometry">
            <mxPoint x="20" y="590" as="sourcePoint" />
            <mxPoint x="70" y="540" as="targetPoint" />
            <Array as="points">
              <mxPoint x="50" y="560" />
            </Array>
          </mxGeometry>
        </mxCell>
        <mxCell id="7ZFGauINO0oHqFnyAmV4-22" value="/" style="text;html=1;align=center;verticalAlign=middle;resizable=0;points=[];autosize=1;strokeColor=none;fillColor=none;" vertex="1" parent="1">
          <mxGeometry x="10" y="540" width="20" height="20" as="geometry" />
        </mxCell>
        <mxCell id="7ZFGauINO0oHqFnyAmV4-23" value="" style="curved=1;endArrow=classic;html=1;rounded=0;" edge="1" parent="1" source="7ZFGauINO0oHqFnyAmV4-20" target="7ZFGauINO0oHqFnyAmV4-2">
          <mxGeometry width="50" height="50" relative="1" as="geometry">
            <mxPoint x="190" y="500" as="sourcePoint" />
            <mxPoint x="240" y="450" as="targetPoint" />
            <Array as="points">
              <mxPoint x="230" y="450" />
            </Array>
          </mxGeometry>
        </mxCell>
        <mxCell id="7ZFGauINO0oHqFnyAmV4-24" value="&lt;div&gt;irq = &#39;1&#39; /&lt;/div&gt;&lt;div&gt;cnt &amp;lt;= 0&lt;/div&gt;&lt;div&gt;selector &amp;lt;= not selector&lt;br&gt;&lt;/div&gt;" style="text;html=1;align=center;verticalAlign=middle;resizable=0;points=[];autosize=1;strokeColor=none;fillColor=none;" vertex="1" parent="1">
          <mxGeometry x="150" y="420" width="140" height="50" as="geometry" />
        </mxCell>
        <mxCell id="7ZFGauINO0oHqFnyAmV4-25" value="&lt;div&gt;wr &amp;lt;= &#39;0&#39;&lt;/div&gt;shift &amp;lt;= &#39;0&#39;" style="text;html=1;align=center;verticalAlign=middle;resizable=0;points=[];autosize=1;strokeColor=none;fillColor=none;" vertex="1" parent="1">
          <mxGeometry x="245" y="720" width="70" height="30" as="geometry" />
        </mxCell>
        <mxCell id="7ZFGauINO0oHqFnyAmV4-26" value="&lt;div&gt;wr &amp;lt;= &#39;0&#39;&lt;/div&gt;shift &amp;lt;= &#39;1&#39;" style="text;html=1;align=center;verticalAlign=middle;resizable=0;points=[];autosize=1;strokeColor=none;fillColor=none;" vertex="1" parent="1">
          <mxGeometry x="120" y="610" width="70" height="30" as="geometry" />
        </mxCell>
        <mxCell id="7ZFGauINO0oHqFnyAmV4-27" value="&lt;div&gt;wr &amp;lt;= &#39;0&#39;&lt;/div&gt;shift &amp;lt;= &#39;0&#39;" style="text;html=1;align=center;verticalAlign=middle;resizable=0;points=[];autosize=1;strokeColor=none;fillColor=none;" vertex="1" parent="1">
          <mxGeometry x="45" y="410" width="70" height="30" as="geometry" />
        </mxCell>
      </root>
    </mxGraphModel>
  </diagram>
</mxfile>
